<svg width="26" height="26" viewBox="0 0 26 26" fill="none" xmlns="http://www.w3.org/2000/svg">
<path d="M4.79755 12.6369C4.66401 12.4214 4.48619 12.2324 4.27423 12.0809C4.06227 11.9293 3.82034 11.8181 3.56224 11.7536C3.30413 11.6892 3.03492 11.6726 2.76996 11.705C2.50501 11.7374 2.2495 11.8181 2.01803 11.9425C1.78656 12.0668 1.58366 12.2324 1.42091 12.4298C1.25816 12.6272 1.13875 12.8525 1.06951 13.0928C1.00026 13.3332 0.982529 13.5839 1.01732 13.8306C1.05212 14.0773 1.13876 14.3152 1.2723 14.5308L5.45289 21.2752C6.54274 22.9945 8.31744 24.2438 10.3911 24.7512C12.4648 25.2587 14.6697 24.9833 16.5265 23.9849C18.3833 22.9866 19.7417 21.3461 20.3065 19.42C20.8714 17.494 20.5968 15.4381 19.5426 13.6996L17.6218 10.5957C17.3355 10.1937 16.8953 9.90854 16.391 9.79843C15.8867 9.68831 15.3563 9.76154 14.908 10.0032C14.4596 10.2448 14.1272 10.6366 13.9785 11.0987C13.8298 11.5607 13.8761 12.0582 14.1078 12.4896" stroke="black" stroke-linecap="round" stroke-linejoin="round"/>
<path d="M11.035 15.12L6.7414 8.19678C6.60786 7.98123 6.43003 7.79228 6.21808 7.64073C6.00612 7.48918 5.76419 7.37799 5.50608 7.31351C5.24798 7.24902 4.97877 7.23251 4.71381 7.26491C4.44886 7.29731 4.19335 7.37799 3.96188 7.50235C3.73041 7.6267 3.5275 7.7923 3.36476 7.98967C3.20201 8.18705 3.0826 8.41234 3.01336 8.65269C2.94411 8.89304 2.92638 9.14373 2.96117 9.39046C2.99597 9.63719 3.08261 9.87512 3.21615 10.0907L7.50972 17.0139" stroke="black" stroke-linecap="round" stroke-linejoin="round"/>
<path d="M15.9156 15.4146L11.1701 7.75489C10.9004 7.31957 10.4561 7.00185 9.9348 6.87162C9.41354 6.74139 8.85807 6.80931 8.39059 7.06046C7.92312 7.31161 7.58192 7.72539 7.44207 8.2108C7.30222 8.6962 7.37517 9.21346 7.64487 9.64878" stroke="black" stroke-linecap="round" stroke-linejoin="round"/>
<path d="M10.1303 6.93415L8.9665 5.05079C8.6968 4.61547 8.25245 4.29774 7.73119 4.16751C7.20992 4.03728 6.65446 4.10521 6.18698 4.35636C5.7195 4.6075 5.37831 5.02129 5.23846 5.5067C5.09861 5.9921 5.17155 6.50936 5.44125 6.94468L5.71243 7.37606" stroke="black" stroke-linecap="round" stroke-linejoin="round"/>
<path d="M20.1867 19.9601C21.5658 18.7973 22.4758 17.23 22.7657 15.5187C23.0555 13.8075 22.7076 12.0554 21.7799 10.5538L19.8591 7.46045C19.7255 7.2449 19.5477 7.05596 19.3358 6.9044C19.1238 6.75285 18.8819 6.64166 18.6238 6.57718C18.3657 6.51269 18.0964 6.49618 17.8315 6.52858C17.5665 6.56099 17.311 6.64167 17.0796 6.76602C16.8481 6.89038 16.6452 7.05597 16.4824 7.25334C16.3197 7.45072 16.2003 7.67601 16.131 7.91636C16.0618 8.15671 16.0441 8.4074 16.0788 8.65413C16.1136 8.90086 16.2003 9.13879 16.3338 9.35434" stroke="black" stroke-linecap="round" stroke-linejoin="round"/>
<path d="M16.5938 9.7751L13.3962 4.61951C13.1265 4.18419 12.6821 3.86647 12.1609 3.73624C11.6396 3.60601 11.0841 3.67394 10.6167 3.92508C10.1492 4.17623 9.808 4.59002 9.66815 5.07542C9.52829 5.56083 9.60124 6.07808 9.87094 6.5134" stroke="black" stroke-linecap="round" stroke-linejoin="round"/>
<path d="M18.921 1L18.4578 2.62033" stroke="#73C62F" stroke-linecap="round" stroke-linejoin="round"/>
<path d="M22.3447 2.48352L21.3052 3.86185" stroke="#73C62F" stroke-linecap="round" stroke-linejoin="round"/>
<path d="M25.0002 4.95593L23.52 5.92392" stroke="#73C62F" stroke-linecap="round" stroke-linejoin="round"/>
</svg>
